<svg id="Camada_1" data-name="Camada 1" xmlns="http://www.w3.org/2000/svg" viewBox="0 0 372 283"><defs><style>.cls-1{fill:#7ed857;}.cls-2{fill:#00c1ca;}.cls-3{fill:#101010;}</style></defs><path class="cls-1" d="M311.2,140.65c-1.24-1.3-2.24-2.41-3.29-3.46Q256.37,85.58,204.72,34.06c-3.21-3.19-3-4.7.09-7.61,7.3-6.81,14.35-13.91,21.25-21.13,2.58-2.7,4-3,6.87-.12q43.62,44,87.54,87.7c15,15,29.86,30,44.93,44.81,2.38,2.34,2.2,3.53-.06,5.78q-67,66.87-133.89,133.92c-2.15,2.16-3.44,2.75-5.87.2-7.47-7.83-15.14-15.48-22.93-23-2.25-2.17-2.13-3.35,0-5.51Q255.49,196.62,308.13,144C309.17,142.94,310.12,141.82,311.2,140.65Z"/><path class="cls-2" d="M139.85,1.75c.79.7,1.44,1.2,2,1.78,8,8,15.85,16.19,24,24.07,3.18,3.08.26,4.28-1.3,5.84q-45.89,46-91.84,91.86L62.44,135.54c-5.59,5.59-5.59,5.6-.17,11l80.86,80.94c7.18,7.19,14.28,14.45,21.58,21.51,2,2,2.14,3,.06,5q-12,11.63-23.73,23.61c-1.84,1.88-2.87,1.7-4.64-.08Q69.52,210.58,2.5,143.7c-2.07-2.06-1.88-3.11.07-5Q69.93,71.42,137.2,4.09C138,3.29,138.88,2.6,139.85,1.75Z"/><path class="cls-3" d="M226.1,198.89c-3.21.36-6.1-1.15-8.89-3.12-14.82-10.48-27.28-23.35-38.29-37.68-3.25-4.23-6-10.42-10.57-11.46-4.27-1-8.79,4.36-13.07,7.11-6.29,4-12.34,8.47-18.58,12.6-3.54,2.35-7.23,5.63-11.55,1.63-2.9-2.69-2.66-10.77.19-14.54a39.85,39.85,0,0,1,7.49-7.3c5.77-4.5,11.67-8.85,17.26-13.58,6.23-5.26,6.41-6.64,3.48-14.13-.84-2.17-1.79-4.29-2.64-6.46a41.49,41.49,0,0,1-1.69-4.68c-.88-3.33-1.28-7.42,1.73-9.13,3.32-1.87,6,1.3,8.21,3.92s4.46,5.39,6.75,8c3.87,4.46,6.84,4.85,11.62,1.23,7.29-5.52,14.46-11.22,21.69-16.84a98.16,98.16,0,0,1,15.12-9.62c4.75-2.48,8.89-1.59,11.78,2.4s2.43,7.26-1.85,11.33c-9.56,9.07-20.22,16.8-30.56,24.91-1,.82-2.13,1.6-3.16,2.45-8.09,6.66-8.3,8.53-2.47,17.39,11.59,17.62,24.68,33.9,41.64,46.74,2,1.54,4,3.26,3.18,6.22C232.41,198.17,230.51,198.86,226.1,198.89Z"/></svg>