<svg id="Camada_1" data-name="Camada 1" xmlns="http://www.w3.org/2000/svg" viewBox="0 0 100 100"><defs><style>.cls-1{fill:#212529;}</style></defs><path class="cls-1" d="M57.1,6.2a23.1,23.1,0,0,1,5.44,1.44,11.39,11.39,0,0,1,7.06,8.17,23.76,23.76,0,0,1-1.25,16.57c-.11.23-.18.47-.33.86.4,0,.69,0,1,0,3,0,6.07-.05,9.1.06A13.53,13.53,0,0,1,90.77,47a15,15,0,0,1-2.14,7.57,2,2,0,0,0-.27,1.61,14.91,14.91,0,0,1-1.22,9.52,4,4,0,0,0-.36,1.87A15.4,15.4,0,0,1,84,77.74,2.54,2.54,0,0,0,83.66,79a15.46,15.46,0,0,1-2.89,9,14.18,14.18,0,0,1-10.41,5.8c-6.73.56-13.51.77-20.11-1C45,91.39,39.78,89.57,34.52,88a16.15,16.15,0,0,0-4.19-.67c-4.46-.08-8.93,0-13.39,0a6.64,6.64,0,0,1-6.53-3.85,7.72,7.72,0,0,1-.68-3.22q-.08-16.6,0-33.21a6.68,6.68,0,0,1,7.07-7c4.46,0,8.92,0,13.38,0a1.93,1.93,0,0,0,1.28-.48c1.53-1.58,3-3.18,4.45-4.86,2.64-3.13,5.18-6.33,7.81-9.46a11.79,11.79,0,0,0,2.08-5.09c.6-2.47,1.14-5,1.93-7.37a9.53,9.53,0,0,1,4.73-5.84,6.87,6.87,0,0,1,1.92-.68A9,9,0,0,1,57.1,6.2ZM30,80.39a32.78,32.78,0,0,1,4.48.58c2.89.8,5.74,1.74,8.57,2.73a58.63,58.63,0,0,0,23.13,3.6,36.42,36.42,0,0,0,4.67-.49,7,7,0,0,0,5.8-6,42.64,42.64,0,0,0,.1-4.53,1.42,1.42,0,0,1,.25-1,8.11,8.11,0,0,0,2.41-9.57,1.08,1.08,0,0,1,.15-.94,8.18,8.18,0,0,0,1.93-8.34c-.31-1-.8-2-1.18-2.88a6.09,6.09,0,0,0,1.46-.94,8.6,8.6,0,0,0,2.2-6.4A6.81,6.81,0,0,0,77,40c-5.77,0-11.55,0-17.33,0h-1c.09-.74.14-1.38.26-2,.6-3,2-5.76,3.23-8.55a16.82,16.82,0,0,0,.76-12.2,4.93,4.93,0,0,0-3.21-3.54A27,27,0,0,0,55.6,13a.86.86,0,0,0-.65.43,19.51,19.51,0,0,0-1.41,3.18c-.67,2.33-1.16,4.71-1.75,7.07a14.58,14.58,0,0,1-3.12,6c-1.7,2-3.38,4-5,6A65,65,0,0,1,36,44.56c-1.54,1.37-3.2,2.4-5.38,2.18a3.2,3.2,0,0,0-.59.08Zm-6.82-3.22a3.36,3.36,0,0,0-3.38-3.36,3.36,3.36,0,0,0,0,6.71A3.35,3.35,0,0,0,23.18,77.17Z"/></svg>