<svg id="Camada_1" data-name="Camada 1" xmlns="http://www.w3.org/2000/svg" viewBox="0 0 100 100"><defs><style>.cls-1{fill:#212529;}</style></defs><path class="cls-1" d="M51.7,59.48l4.9-6c.21.23.41.44.6.66A45.11,45.11,0,0,0,64.51,61,18.26,18.26,0,0,0,76,64.86a16.21,16.21,0,0,0,10.46-4A13.54,13.54,0,0,0,86.34,40c-4.55-3.91-12.32-5.84-19-1.32A32,32,0,0,0,61.19,44c-2.49,2.86-4.85,5.82-7.31,8.7-2.87,3.36-5.67,6.78-8.7,10A30.86,30.86,0,0,1,33.11,71c-8.16,2.9-15.92,2-23-3.07C-2,59.14-2,41.89,10.06,33a23.27,23.27,0,0,1,27.44-.4A56.19,56.19,0,0,1,48.33,43.3l-4.88,6.09c-.21-.25-.37-.46-.56-.66-2.32-2.52-4.56-5.14-7-7.54a17.46,17.46,0,0,0-8.54-4.84C19.94,34.75,10.85,39.2,9,47.69a13.76,13.76,0,0,0,6.69,14.69c5.76,3.41,11.64,3.31,17.48.13a29.66,29.66,0,0,0,8-6.64c2.81-3.21,5.45-6.56,8.22-9.81s5.31-6.29,8.15-9.26a27.67,27.67,0,0,1,11.22-7.36c11.95-4,27,3.05,29.75,16.81,1.76,8.82-1.3,16.13-8.42,21.43-7.69,5.72-16.17,6.39-24.92,2.57C59.77,67.89,55.62,63.86,51.7,59.48Z"/></svg>