<svg id="Camada_1" data-name="Camada 1" xmlns="http://www.w3.org/2000/svg" viewBox="0 0 100 100"><defs><style>.cls-1{fill:#212529;}</style></defs><path class="cls-1" d="M27.76,81.28a3.8,3.8,0,0,1-3.87-4.92,12.3,12.3,0,0,1,1-2q18.22-31,36.47-62a10.08,10.08,0,0,1,1.16-1.71,3.73,3.73,0,0,1,6.2,3.85,10.1,10.1,0,0,1-.85,1.67Q49.57,47.32,31.26,78.5C30.39,80,29.41,81.2,27.76,81.28Z"/><path class="cls-1" d="M49.69,21C48.22,23.58,47,26,45.47,28.19c-.37.55-1.53.7-2.36.8A58,58,0,0,0,16.56,39a110.65,110.65,0,0,0-8.72,7.2c-1.4,1.2-2.82,1.91-4.63,1.08-2.6-1.19-3-4.19-.77-6.41A66.5,66.5,0,0,1,17.92,29.18a67.67,67.67,0,0,1,30.85-8.27C49,20.91,49.14,21,49.69,21Z"/><path class="cls-1" d="M69.94,23.76A66.62,66.62,0,0,1,98,40.41a3.65,3.65,0,0,1,.08,5.27c-1.52,1.6-3.74,1.63-5.53-.09A59.33,59.33,0,0,0,75.1,33.81c-2.87-1.25-5.86-2.23-9-3.41Z"/><path class="cls-1" d="M56.13,47.73l3.94-6.85a44.61,44.61,0,0,1,18.15,8.3A50,50,0,0,1,82.63,53c1.87,1.81,1.94,4.05.32,5.65s-3.76,1.49-5.55-.24a38.33,38.33,0,0,0-17.34-9.8C58.85,48.31,57.63,48.07,56.13,47.73Z"/><path class="cls-1" d="M45.06,66.94c1.55-2.71,2.92-5.17,4.39-7.58a1.74,1.74,0,0,1,1.33-.7A24.32,24.32,0,0,1,68,66.1a3.61,3.61,0,0,1,0,5.12,3.55,3.55,0,0,1-5,.41A18.23,18.23,0,0,0,45.06,66.94Z"/><path class="cls-1" d="M37.88,41.52c-2,3.52-3.9,6.77-5.81,10-.24.39-.8.58-1.2.88-2.61,1.95-5.29,3.81-7.8,5.88-2.12,1.74-4.25,2-5.84.33s-1.42-3.86.58-5.79a45.6,45.6,0,0,1,18.82-11C36.91,41.68,37.21,41.65,37.88,41.52Z"/><path class="cls-1" d="M57.65,80.73c-1.7,1.82-3.35,3.71-5.14,5.46a3.24,3.24,0,0,1-4.88-.09c-1.74-1.73-3.35-3.57-5-5.36C46.32,76.38,53.69,76.35,57.65,80.73Z"/></svg>