<svg id="Camada_1" data-name="Camada 1" xmlns="http://www.w3.org/2000/svg" viewBox="0 0 100 100"><defs><style>.cls-1{fill:#212529;}</style></defs><path class="cls-1" d="M72.5,84.51c-.88.91-1.68,1.75-2.49,2.57-1,1-2,2-3,3a2.85,2.85,0,0,1-4.27,0L57.59,85c-.12-.12-.2-.26-.33-.42-.18.17-.3.27-.41.39l-5.12,5.11a2.86,2.86,0,0,1-4.36,0l-5.15-5.13c-.1-.1-.19-.19-.32-.3-.12.11-.23.2-.33.31l-5.12,5.11a2.86,2.86,0,0,1-4.39,0L26.94,85c-.1-.11-.21-.2-.45-.42a1.92,1.92,0,0,1-.27.44c-1.74,1.75-3.47,3.5-5.23,5.22a2.79,2.79,0,0,1-4.43-.46,5.18,5.18,0,0,1-.44-1.38,1.4,1.4,0,0,1,0-.41q0-37.69,0-75.39a3,3,0,0,1,3.09-3.09H80a2.84,2.84,0,0,1,3,3V88.07a2.84,2.84,0,0,1-1.77,2.78,2.81,2.81,0,0,1-3.18-.71c-1.72-1.7-3.42-3.41-5.12-5.12A6.37,6.37,0,0,1,72.5,84.51Zm4.7-3.29.11,0V15.71c0-.54,0-.54-.53-.54H22.31c-.42,0-.52.12-.52.53q0,32.55,0,65.09c0,.14,0,.28,0,.52l.4-.38c.78-.78,1.55-1.57,2.34-2.34a3.46,3.46,0,0,1,.91-.61,2.83,2.83,0,0,1,3.26.69l5.16,5.18.44.41a2.66,2.66,0,0,1,.3-.43l5.08-5.1a2.88,2.88,0,0,1,4.37,0l5.08,5.1a2.27,2.27,0,0,1,.28.45l.21,0a2.21,2.21,0,0,1,.28-.4l5.13-5.16a2.86,2.86,0,0,1,4.28,0q2.58,2.56,5.14,5.15a2.56,2.56,0,0,1,.27.44l.47-.44q2.57-2.58,5.14-5.15a2.87,2.87,0,0,1,4.28,0c.75.74,1.5,1.5,2.25,2.25Z"/><path class="cls-1" d="M49.75,34.87H65.83a2.67,2.67,0,0,1,2.69,1.44c.61,1.39-.43,2.84-2.17,3a4.43,4.43,0,0,1-.52,0H33.68a2.92,2.92,0,0,1-2.22-.81,1.94,1.94,0,0,1-.41-2.3,2.4,2.4,0,0,1,2.16-1.37c.25,0,.5,0,.75,0Z"/><path class="cls-1" d="M49.77,23.69c5.38,0,10.76,0,16.13,0a2.68,2.68,0,0,1,2.59,1.39c.67,1.41-.47,3-2.24,3.08H33.66a2.6,2.6,0,0,1-2.75-1.71,2.28,2.28,0,0,1,2.21-2.75,5.61,5.61,0,0,1,.71,0Z"/><path class="cls-1" d="M61.92,69.62a.12.12,0,0,1-.12-.13V66.93c0-.27,0-.27-.45-.31a11.84,11.84,0,0,1-4.13-1.2.12.12,0,0,1-.06-.16l1.05-2.83a.16.16,0,0,1,.07-.07h.09l.4.16a10.61,10.61,0,0,0,4.17.93h0a8.62,8.62,0,0,0,1.14-.07c1-.14,1.5-.69,1.42-1.57a1.44,1.44,0,0,0-.78-1.13c-.55-.29-1.15-.54-1.72-.79l-.16-.07-1-.38c-.55-.22-1.13-.44-1.67-.72a4.62,4.62,0,0,1-2.51-3.07,4.58,4.58,0,0,1,3.67-5.51c.38-.08.47-.2.45-.57s0-1,0-1.48v-.65a.12.12,0,0,1,.12-.13H65a.13.13,0,0,1,.13.13v.63c0,.49,0,1,0,1.47,0,.3.06.36.39.42.61.12,1.22.26,1.82.41l1,.22a.66.66,0,0,1,.44.26.63.63,0,0,1,0,.53c-.17.57-.31,1.15-.46,1.75l-.19.74a.1.1,0,0,1-.06.08L68,54h0l-.44-.14A10.5,10.5,0,0,0,64,53.15a7.2,7.2,0,0,0-1.14.09,1.48,1.48,0,0,0-1.07.62,1.16,1.16,0,0,0-.09,1,1.42,1.42,0,0,0,.57.74,14.23,14.23,0,0,0,1.82.82l.44.18a12,12,0,0,1,3.31,1.72,4.75,4.75,0,0,1,1.69,3.15,4.53,4.53,0,0,1-1,3.39,5.05,5.05,0,0,1-3.06,1.68c-.3.06-.35.15-.34.44,0,.52,0,1,0,1.57V69c0,.1,0,.21,0,.32v.14a.13.13,0,0,1-.13.12Z"/><path class="cls-1" d="M65,47.44c0,.71,0,1.4,0,2.09,0,.4.14.48.5.55.93.18,1.85.42,2.77.63.37.08.48.24.36.63-.24.81-.43,1.63-.65,2.5l-.44-.14A10.74,10.74,0,0,0,64,53a7.65,7.65,0,0,0-1.16.09,1.35,1.35,0,0,0-1.26,1.76,1.51,1.51,0,0,0,.62.8,15.19,15.19,0,0,0,1.93.87,13.38,13.38,0,0,1,3.63,1.85,4.56,4.56,0,0,1,.67,6.36,5,5,0,0,1-3,1.63c-.38.08-.45.24-.44.57,0,.7,0,1.39,0,2.09,0,.14,0,.29,0,.45H61.92c0-.8,0-1.58,0-2.37,0-.57.09-.57-.56-.62a12.29,12.29,0,0,1-4.09-1.19l1.06-2.83.39.16a10.93,10.93,0,0,0,4.22.94,9.17,9.17,0,0,0,1.16-.08c1.05-.14,1.61-.76,1.52-1.7a1.52,1.52,0,0,0-.84-1.23c-.61-.32-1.25-.59-1.89-.86-.88-.37-1.79-.67-2.64-1.1a4.38,4.38,0,0,1-1.63-6.67,4.48,4.48,0,0,1,2.77-1.68c.44-.09.57-.27.54-.7,0-.69,0-1.39,0-2.12H65m0-.25H61.92a.25.25,0,0,0-.25.25v.65c0,.51,0,1,0,1.48,0,.32,0,.38-.34.44a4.72,4.72,0,0,0-2.92,1.78,4.67,4.67,0,0,0-.85,3.89,4.72,4.72,0,0,0,2.57,3.15,16.48,16.48,0,0,0,1.69.72l1,.39L63,60c.57.24,1.16.49,1.7.78a1.27,1.27,0,0,1,.71,1c.1,1-.66,1.34-1.31,1.42a8.32,8.32,0,0,1-1.12.08,10.53,10.53,0,0,1-4.12-.92l-.25-.1-.15-.06a.15.15,0,0,0-.09,0l-.1,0a.27.27,0,0,0-.14.14l-.33.88L57,65.22a.24.24,0,0,0,.13.31,12,12,0,0,0,4.17,1.22l.33,0a.75.75,0,0,1,0,.15v2.56a.25.25,0,0,0,.25.25H65a.24.24,0,0,0,.25-.23v-.16c0-.11,0-.21,0-.31v-.51c0-.53,0-1.06,0-1.59,0-.23,0-.26.24-.31a5.15,5.15,0,0,0,3.13-1.72,4.65,4.65,0,0,0,1-3.49,4.78,4.78,0,0,0-1.74-3.22,11.74,11.74,0,0,0-3.34-1.75l-.34-.14-.09,0a16.41,16.41,0,0,1-1.81-.82,1.26,1.26,0,0,1-.51-.66,1,1,0,0,1,.08-.87,1.36,1.36,0,0,1,1-.57A7,7,0,0,1,64,53.27a10.33,10.33,0,0,1,3.45.67l.29.09.15,0H68a.27.27,0,0,0,.12,0,.26.26,0,0,0,.12-.15c.06-.26.13-.52.19-.77.15-.6.29-1.16.46-1.72a.77.77,0,0,0,0-.63.76.76,0,0,0-.52-.32l-1-.23c-.6-.14-1.21-.29-1.83-.4-.3-.06-.3-.08-.29-.3,0-.49,0-1,0-1.47,0-.21,0-.42,0-.63a.25.25,0,0,0-.25-.25Z"/><path class="cls-1" d="M40.47,46.07h7.24A2.24,2.24,0,0,1,50,48.45a2.29,2.29,0,0,1-2.37,2.1c-1.55,0-3.09,0-4.64,0H33.26a2.32,2.32,0,0,1-2.43-2.18,2.23,2.23,0,0,1,2.28-2.3c2.45,0,4.91,0,7.36,0Z"/><path class="cls-1" d="M40.51,56.73c2.4,0,4.81,0,7.21,0A2.23,2.23,0,0,1,50,59.12a2.3,2.3,0,0,1-2.36,2.1H33.33A2.3,2.3,0,0,1,30.91,59a2.23,2.23,0,0,1,2.27-2.3c2.44,0,4.89,0,7.33,0Z"/></svg>