<svg id="Camada_1" data-name="Camada 1" xmlns="http://www.w3.org/2000/svg" viewBox="0 0 100 100"><defs><style>.cls-1{fill:#212529;}</style></defs><path class="cls-1" d="M5.23,46.69l8.87,1.42c-.15,11.06,3.56,20.51,11.71,28a34.77,34.77,0,0,0,21.43,9.28A35.65,35.65,0,0,0,67.19,18.76a35.39,35.39,0,0,0-43,6.5l8.65-1.11,1.25,7.92L8.18,35.87l2.05-25.5,8.05.61L17.77,18C39.15-2.47,68,4,81.77,18.27c15,15.52,17.24,39.5,5,57a44.93,44.93,0,0,1-55,15.65C11.16,81.79,3.37,60.9,5.23,46.69Z"/><path class="cls-1" d="M71,66.81l-5.81,5.68c-.33-.29-.75-.61-1.11-1-6-6.18-12-12.35-18-18.58A3.73,3.73,0,0,1,45,50.68c-.07-8.49,0-17,0-25.47,0-.27.08-.53.14-1H54v2.24c0,6.93,0,13.86,0,20.78a4.65,4.65,0,0,0,1.14,2.82c4.76,5.12,9.63,10.15,14.45,15.21C70.07,65.79,70.51,66.29,71,66.81Z"/></svg>