<svg id="Camada_1" data-name="Camada 1" xmlns="http://www.w3.org/2000/svg" viewBox="0 0 100 100"><defs><style>.cls-1{fill:#212529;}</style></defs><path class="cls-1" d="M75.48,21.3l-9.63-5.8L92,1c-.16,10.07-.31,19.84-.47,29.9l-9.6-5.75c-.27.41-.51.74-.72,1.08-3.13,5.22-6.28,10.43-9.38,15.68a1.35,1.35,0,0,1-1.77.76C60.67,40.3,51.28,38,41.92,35.58a2.52,2.52,0,0,0-2.81.81Q26.95,48.66,14.7,60.85a4.14,4.14,0,0,1-3,1.49,3.47,3.47,0,0,1-3.32-2,3.55,3.55,0,0,1,.37-3.89,11.76,11.76,0,0,1,1-1.1Q23.27,41.77,36.79,28.19a2.62,2.62,0,0,1,2.91-.82c9,2.3,17.94,4.52,26.92,6.73A1.53,1.53,0,0,0,68,33.76C70.47,29.68,72.92,25.56,75.48,21.3Z"/><path class="cls-1" d="M84.49,35.67c2.42,1.44,4.72,2.79,7,4.2a1.56,1.56,0,0,1,.49.9,4.17,4.17,0,0,1,0,1V99H77.06c0-.45-.06-.89-.06-1.34q0-24.16,0-48.33a3,3,0,0,1,.23-1.46C79.59,43.81,82,39.82,84.49,35.67Z"/><path class="cls-1" d="M46.57,99H31.74c0-.48-.07-.93-.07-1.37q0-20.85,0-41.69a3.37,3.37,0,0,1,.86-2c3-3.12,6.14-6.14,9.16-9.25A2,2,0,0,1,44,44c2.62.72,2.64.67,2.64,3.38q0,24.91,0,49.83C46.65,97.81,46.6,98.38,46.57,99Z"/><path class="cls-1" d="M54.42,99V46.67l14.86,3.7V99Z"/><path class="cls-1" d="M24,62.55V99H9.1c0-.41-.07-.85-.07-1.29,0-6.63,0-13.26,0-19.89a2.5,2.5,0,0,1,.58-1.65c4.55-4.41,9.15-8.77,13.74-13.14C23.5,62.89,23.64,62.79,24,62.55Z"/></svg>